<?xml version="1.0" ?><!-- Uploaded to: SVG Repo, www.svgrepo.com, Generator: SVG Repo Mixer Tools -->
<svg width="800px" height="800px" viewBox="0 0 32 32" enable-background="new 0 0 32 32" id="Editable-line" version="1.1" xml:space="preserve" xmlns="http://www.w3.org/2000/svg" xmlns:xlink="http://www.w3.org/1999/xlink"><path d="  M23.995,13.089C23.996,13.059,24,13.03,24,13c0-4.418-3.582-8-8-8c-3.814,0-6.998,2.671-7.8,6.242C5.208,12.038,3,14.757,3,18  c0,3.866,3.134,7,7,7h13c3.314,0,6-2.686,6-6C29,16.026,26.834,13.564,23.995,13.089z" fill="none" id="XMLID_24_" stroke="#000000" stroke-linecap="round" stroke-linejoin="round" stroke-miterlimit="10" stroke-width="2"/><path d="  M11,17c0,2.761,2.239,5,5,5c0.711,0,1.387-0.148,1.999-0.416" fill="none" id="XMLID_25_" stroke="#000000" stroke-linecap="round" stroke-linejoin="round" stroke-miterlimit="10" stroke-width="2"/><path d="  M21,17c0-2.761-2.239-5-5-5c-0.712,0-1.39,0.149-2.003,0.418" fill="none" id="XMLID_26_" stroke="#000000" stroke-linecap="round" stroke-linejoin="round" stroke-miterlimit="10" stroke-width="2"/><polygon fill="none" id="XMLID_27_" points="  9,17 11,15 13,17 " stroke="#000000" stroke-linecap="round" stroke-linejoin="round" stroke-miterlimit="10" stroke-width="2"/><polygon fill="none" id="XMLID_28_" points="  23,17 21,19 19,17 " stroke="#000000" stroke-linecap="round" stroke-linejoin="round" stroke-miterlimit="10" stroke-width="2"/></svg>