<?xml version="1.0" encoding="utf-8"?>
<!-- Uploaded to: SVG Repo, www.svgrepo.com, Generator: SVG Repo Mixer Tools -->
<svg width="800px" height="800px" viewBox="0 0 1024 1024" fill="#000000" class="icon"  version="1.1" xmlns="http://www.w3.org/2000/svg"><path d="M1015.848 687.82H8.156a7.992 7.992 0 0 1-7.998-7.996 7.994 7.994 0 0 1 7.998-7.998h1007.692a7.992 7.992 0 0 1 7.996 7.998 7.992 7.992 0 0 1-7.996 7.996zM512 767.766c-17.644 0-31.99-14.34-31.99-31.99s14.346-31.99 31.99-31.99c17.652 0 31.992 14.34 31.992 31.99s-14.34 31.99-31.992 31.99z m0-47.984c-8.818 0-15.996 7.184-15.996 15.994s7.178 15.994 15.996 15.994c8.816 0 15.996-7.184 15.996-15.994s-7.18-15.994-15.996-15.994zM376.136 975.732a8.01 8.01 0 0 1-7.818-9.73l31.99-143.956c0.968-4.312 5.294-6.984 9.544-6.078a8.014 8.014 0 0 1 6.078 9.544l-31.99 143.956a8 8 0 0 1-7.804 6.264zM647.864 975.732a8 8 0 0 1-7.808-6.264l-31.988-143.956a8.01 8.01 0 0 1 6.074-9.544c4.296-0.906 8.574 1.766 9.542 6.078l31.992 143.956a8.008 8.008 0 0 1-7.812 9.73z" fill="" /><path d="M671.954 975.732H352.05a7.992 7.992 0 0 1-7.998-7.998 7.992 7.992 0 0 1 7.998-7.996h319.904a7.992 7.992 0 0 1 7.996 7.996 7.992 7.992 0 0 1-7.996 7.998zM967.86 639.836H56.14a7.994 7.994 0 0 1-7.998-7.998V104a7.994 7.994 0 0 1 7.998-7.998h911.72c4.422 0 8 3.578 8 7.998v527.838a7.994 7.994 0 0 1-8 7.998zM64.138 623.84h895.726V111.998H64.138V623.84z" fill="" /><path d="M967.86 143.988H56.14a7.994 7.994 0 0 1-7.998-7.998 7.994 7.994 0 0 1 7.998-7.998h911.72c4.422 0 8 3.578 8 7.998a7.994 7.994 0 0 1-8 7.998z" fill="" /><path d="M88.606 127.992c-4.412 0-8.076-3.576-8.076-7.998s3.5-7.998 7.92-7.998h0.156c4.42 0 7.998 3.576 7.998 7.998s-3.578 7.998-7.998 7.998zM120.12 143.988a7.994 7.994 0 0 1-7.998-7.998V104a7.994 7.994 0 0 1 7.998-7.998A7.994 7.994 0 0 1 128.118 104v31.99a7.992 7.992 0 0 1-7.998 7.998zM184.1 143.988a7.994 7.994 0 0 1-7.998-7.998V104c0-4.42 3.578-7.998 7.998-7.998S192.098 99.58 192.098 104v31.99a7.994 7.994 0 0 1-7.998 7.998zM248.082 143.988a7.994 7.994 0 0 1-7.998-7.998V104c0-4.42 3.578-7.998 7.998-7.998S256.08 99.58 256.08 104v31.99a7.994 7.994 0 0 1-7.998 7.998zM312.062 143.988a7.994 7.994 0 0 1-7.998-7.998V104c0-4.42 3.578-7.998 7.998-7.998S320.06 99.58 320.06 104v31.99a7.994 7.994 0 0 1-7.998 7.998zM376.042 143.988a7.994 7.994 0 0 1-7.998-7.998V104a7.994 7.994 0 0 1 7.998-7.998A7.994 7.994 0 0 1 384.04 104v31.99a7.994 7.994 0 0 1-7.998 7.998zM935.872 143.988c-4.422 0-8-3.578-8-7.998V104a7.994 7.994 0 0 1 8-7.998A7.994 7.994 0 0 1 943.868 104v31.99a7.992 7.992 0 0 1-7.996 7.998zM903.878 143.988a7.994 7.994 0 0 1-7.996-7.998V104a7.994 7.994 0 0 1 7.996-7.998c4.422 0 8 3.578 8 7.998v31.99a7.994 7.994 0 0 1-8 7.998zM855.894 143.988a7.992 7.992 0 0 1-7.996-7.998V104c0-4.42 3.574-7.998 7.996-7.998s7.996 3.578 7.996 7.998v31.99a7.99 7.99 0 0 1-7.996 7.998zM823.906 143.988c-4.422 0-8-3.578-8-7.998V104a7.994 7.994 0 0 1 8-7.998A7.994 7.994 0 0 1 831.902 104v31.99a7.992 7.992 0 0 1-7.996 7.998zM791.914 143.988a7.992 7.992 0 0 1-7.996-7.998V104c0-4.42 3.574-7.998 7.996-7.998s7.996 3.578 7.996 7.998v31.99a7.99 7.99 0 0 1-7.996 7.998zM759.926 143.988c-4.422 0-8-3.578-8-7.998V104a7.994 7.994 0 0 1 8-7.998A7.994 7.994 0 0 1 767.922 104v31.99a7.992 7.992 0 0 1-7.996 7.998zM727.934 143.988a7.992 7.992 0 0 1-7.996-7.998V104c0-4.42 3.574-7.998 7.996-7.998s8 3.578 8 7.998v31.99a7.994 7.994 0 0 1-8 7.998z" fill="" /><path d="M384.04 575.856h-79.976a7.994 7.994 0 0 1-7.998-7.998v-79.974a7.994 7.994 0 0 1 7.998-7.998h79.976a7.994 7.994 0 0 1 7.998 7.998v79.974a7.994 7.994 0 0 1-7.998 7.998z m-71.978-15.996h63.98v-63.98h-63.98v63.98zM608.286 575.856h-80.288a8.004 8.004 0 0 1-7.156-11.574l39.988-79.976c2.718-5.42 11.59-5.42 14.308 0l39.114 78.21a7.954 7.954 0 0 1 2.032 5.342 7.996 7.996 0 0 1-7.998 7.998z m-67.356-15.996h54.11l-27.054-54.092-27.056 54.092zM703.942 575.856h-47.984a7.998 7.998 0 0 1-7.844-6.436l-15.992-79.968a8 8 0 0 1 7.84-9.568h79.976a8.006 8.006 0 0 1 7.84 9.568l-15.996 79.968a7.994 7.994 0 0 1-7.84 6.436z m-41.426-15.996h34.868l12.808-63.98h-60.484l12.808 63.98zM456.016 575.856c-12.816 0-24.86-4.998-33.926-14.058-9.068-9.058-14.058-21.118-14.058-33.926 0-12.816 4.99-24.868 14.058-33.928 18.134-18.134 49.718-18.134 67.854 0 9.068 9.06 14.058 21.112 14.058 33.928a47.66 47.66 0 0 1-14.058 33.926c-9.068 9.06-21.11 14.058-33.928 14.058z m0-79.976c-8.542 0-16.572 3.328-22.618 9.372s-9.372 14.074-9.372 22.62a31.78 31.78 0 0 0 9.372 22.618c12.09 12.09 33.146 12.09 45.236 0a31.774 31.774 0 0 0 9.372-22.618c0-8.544-3.326-16.574-9.372-22.62s-14.072-9.372-22.618-9.372z" fill="" /><path d="M767.922 607.846H256.08a8 8 0 0 1-7.052-4.216 8.02 8.02 0 0 1 0.398-8.216l31.99-47.986a8.02 8.02 0 0 1 6.654-3.56h15.994a7.994 7.994 0 0 1 7.998 7.998v7.996h63.98v-7.996a7.992 7.992 0 0 1 7.998-7.998h40.206c2.5 0 4.858 1.172 6.374 3.154 1.234 1.656 1.93 2.624 2.782 3.468 12.09 12.09 33.146 12.09 45.236 0 0.852-0.844 1.546-1.812 2.256-2.75 1.506-2.014 4.382-3.874 6.896-3.874h40.208a7.992 7.992 0 0 1 7.996 7.998v7.996h63.98v-7.996a7.994 7.994 0 0 1 8-7.998h44.782a7.994 7.994 0 0 1 7.84 6.436l1.922 9.558h34.868l1.918-9.558a7.998 7.998 0 0 1 7.844-6.436h28.79c2.668 0 5.168 1.344 6.652 3.56l31.988 47.986a8.072 8.072 0 0 1 0.406 8.216 8.036 8.036 0 0 1-7.062 4.218z m-496.902-15.994h481.968l-21.336-31.992h-17.964l-1.906 9.56a7.994 7.994 0 0 1-7.84 6.436h-47.984a7.998 7.998 0 0 1-7.844-6.436l-1.902-9.56h-30.242v7.998a7.994 7.994 0 0 1-7.996 7.998h-79.976c-4.422 0-8-3.578-8-7.998v-7.998h-28.294c-0.586 0.704-1.148 1.328-1.758 1.938-18.134 18.136-49.718 18.136-67.854 0a31.126 31.126 0 0 1-1.758-1.938h-28.296v7.998a7.994 7.994 0 0 1-7.998 7.998h-79.976a7.994 7.994 0 0 1-7.998-7.998v-7.998h-3.718l-21.328 31.992z" fill="" /><path d="M344.052 367.92h-143.956a7.994 7.994 0 0 1-7.998-7.998v-95.97a7.994 7.994 0 0 1 7.998-7.998h143.956a7.994 7.994 0 0 1 7.998 7.998v95.97a7.994 7.994 0 0 1-7.998 7.998z m-135.96-15.996h127.96v-79.974h-127.96v79.974z" fill="" /><path d="M280.072 271.95h-79.976a8 8 0 0 1-7.152-11.574l15.994-31.99a8.002 8.002 0 0 1 7.154-4.42h63.98a7.994 7.994 0 0 1 7.998 7.998v31.99a7.994 7.994 0 0 1-7.998 7.996z m-67.034-15.996h59.036v-15.994h-51.04l-7.996 15.994zM328.056 399.91h-111.966a7.994 7.994 0 0 1-7.998-7.998 7.994 7.994 0 0 1 7.998-7.998h111.966a7.994 7.994 0 0 1 7.998 7.998 7.994 7.994 0 0 1-7.998 7.998z" fill="" /><path d="M583.976 367.92h-143.954a7.994 7.994 0 0 1-7.998-7.998v-95.97a7.994 7.994 0 0 1 7.998-7.998h143.954c4.422 0 8 3.578 8 7.998v95.97a7.994 7.994 0 0 1-8 7.998z m-135.956-15.996h127.96v-79.974h-127.96v79.974z" fill="" /><path d="M519.996 271.95h-79.974a8 8 0 0 1-7.154-11.574l15.996-31.99a8 8 0 0 1 7.154-4.42h63.98c4.422 0 8 3.578 8 7.998v31.99a7.998 7.998 0 0 1-8.002 7.996z m-67.032-15.996H512v-15.994h-51.04l-7.996 15.994zM567.984 399.91h-111.968a7.994 7.994 0 0 1-7.998-7.998 7.994 7.994 0 0 1 7.998-7.998h111.968a7.994 7.994 0 0 1 7.996 7.998 7.994 7.994 0 0 1-7.996 7.998z" fill="" /><path d="M823.906 367.92h-143.958a7.992 7.992 0 0 1-7.996-7.998v-95.97a7.992 7.992 0 0 1 7.996-7.998h143.958a7.994 7.994 0 0 1 7.996 7.998v95.97a7.994 7.994 0 0 1-7.996 7.998z m-135.96-15.996h127.96v-79.974h-127.96v79.974z" fill="" /><path d="M759.926 271.95h-79.976a7.994 7.994 0 0 1-7.156-11.574l15.996-31.99a8.002 8.002 0 0 1 7.156-4.42h63.98a7.994 7.994 0 0 1 7.996 7.998v31.99a7.994 7.994 0 0 1-7.996 7.996z m-67.044-15.996h59.042v-15.994h-51.046l-7.996 15.994zM807.91 399.91h-111.964c-4.422 0-8-3.578-8-7.998a7.994 7.994 0 0 1 8-7.998h111.964a7.992 7.992 0 0 1 7.996 7.998 7.992 7.992 0 0 1-7.996 7.998z" fill="" /><path d="M967.86 800.038H56.14c-30.866 0-55.982-25.118-55.982-55.982V104.25c0-30.866 25.118-55.982 55.982-55.982h911.72c30.868 0 55.984 25.118 55.984 55.982v639.804c0 30.866-25.118 55.984-55.984 55.984zM56.14 64.262c-22.048 0-39.988 17.94-39.988 39.988v639.804c0 22.054 17.94 39.986 39.988 39.986h911.72c22.058 0 39.988-17.932 39.988-39.986V104.25c0-22.048-17.93-39.988-39.988-39.988H56.14z" fill="" /><path d="M967.86 831.778H56.14c-31.388 0-55.982-24.586-55.982-55.982v-31.99a7.994 7.994 0 0 1 7.998-7.998 7.994 7.994 0 0 1 7.998 7.998v31.99c0 22.43 17.566 39.986 39.988 39.986h911.72c22.434 0 39.988-17.556 39.988-39.986v-31.74a7.994 7.994 0 0 1 8-7.998 7.992 7.992 0 0 1 7.996 7.998v31.74c-0.002 31.396-24.588 55.982-55.986 55.982z" fill="" /></svg>