<?xml version="1.0" encoding="iso-8859-1"?>
<!-- Uploaded to: SVG Repo, www.svgrepo.com, Generator: SVG Repo Mixer Tools -->
<svg fill="#000000" height="800px" width="800px" version="1.1" id="Layer_1" xmlns="http://www.w3.org/2000/svg" xmlns:xlink="http://www.w3.org/1999/xlink" 
	 viewBox="0 0 511.984 511.984" xml:space="preserve">
<g>
	<g>
		<path d="M465.505,31.999H46.463C20.847,31.999,0,52.686,0,78.126v35.743c0,25.439,20.847,46.127,46.463,46.127h419.059
			c25.615,0,46.463-20.687,46.463-46.127V78.126C511.984,52.686,491.137,31.999,465.505,31.999z M479.985,113.868
			c0,7.792-6.496,14.128-14.48,14.128H46.463c-7.968,0-14.464-6.336-14.464-14.128V78.126c0-7.792,6.496-14.128,14.464-14.128
			h419.059c7.968,0,14.464,6.336,14.464,14.128V113.868z"/>
	</g>
</g>
<g>
	<g>
		<path d="M351.989,79.998H111.997c-8.832,0-16,7.168-16,16s7.168,16,16,16h239.992c8.832,0,16-7.168,16-16
			S360.821,79.998,351.989,79.998z"/>
	</g>
</g>
<g>
	<g>
		<path d="M75.806,85.597c-5.92-5.92-16.639-5.92-22.559,0c-3.04,3.04-4.8,7.2-4.8,11.36s1.76,8.32,4.8,11.36
			c2.88,2.88,7.04,4.64,11.2,4.64c4.32,0,8.32-1.776,11.36-4.64c3.04-3.04,4.64-7.2,4.64-11.36S78.846,88.637,75.806,85.597z"/>
	</g>
</g>
<g>
	<g>
		<path d="M460.274,85.597c-6.08-5.92-16.799-5.92-22.719,0c-2.88,3.04-4.64,7.2-4.64,11.36s1.76,8.32,4.64,11.36
			c3.04,2.88,7.2,4.64,11.36,4.64c4.16,0,8.32-1.776,11.36-4.64c2.88-3.04,4.64-7.2,4.64-11.36S463.154,88.637,460.274,85.597z"/>
	</g>
</g>
<g>
	<g>
		<path d="M411.955,85.597c-5.92-5.92-16.639-5.92-22.559,0c-3.04,3.04-4.8,7.2-4.8,11.36s1.76,8.32,4.8,11.36
			c2.88,2.88,7.04,4.64,11.2,4.64c4.32,0,8.48-1.776,11.36-4.64c3.04-3.04,4.8-7.2,4.8-11.36S414.995,88.637,411.955,85.597z"/>
	</g>
</g>
<g>
	<g>
		<path d="M465.009,191.994h-113.02c-8.832,0-16,7.168-16,16s7.168,15.999,16,15.999h113.02c8.128,0,14.976,6.32,14.976,13.776
			v36.399c0,7.488-6.848,13.824-14.976,13.824h-113.02c-8.832,0-16,7.152-16,15.999s7.168,16,16,16h113.02
			c25.903,0,46.975-20.559,46.975-45.823v-36.399C511.984,212.537,490.913,191.994,465.009,191.994z"/>
	</g>
</g>
<g>
	<g>
		<path d="M159.995,287.991H46.687c-8.096,0-14.688-6.208-14.688-13.824v-36.399c0-7.6,6.592-13.776,14.688-13.776h113.308
			c8.832,0,16-7.168,16-15.999s-7.168-16-16-16H46.687C20.943,191.994,0,212.537,0,237.769v36.399
			c0,25.263,20.943,45.823,46.687,45.823h113.308c8.832,0,16-7.152,16-16S168.827,287.991,159.995,287.991z"/>
	</g>
</g>
<g>
	<g>
		<path d="M159.995,239.993h-47.998c-8.832,0-16,7.152-16,16s7.168,16,16,16h47.998c8.832,0,16-7.168,16-16
			S168.827,239.993,159.995,239.993z"/>
	</g>
</g>
<g>
	<g>
		<path d="M75.806,245.272c-5.92-5.92-16.639-5.92-22.559,0c-3.04,3.04-4.8,7.2-4.8,11.36c0,4.32,1.76,8.32,4.8,11.36
			c2.88,2.88,7.04,4.64,11.2,4.64c4.32,0,8.32-1.776,11.36-4.64c3.04-3.04,4.64-7.04,4.64-11.36
			C80.445,252.472,78.846,248.312,75.806,245.272z"/>
	</g>
</g>
<g>
	<g>
		<path d="M460.274,245.272c-5.92-5.92-16.799-5.92-22.719,0c-2.88,3.04-4.64,7.2-4.64,11.36c0,4.32,1.76,8.32,4.64,11.36
			c3.04,2.88,7.04,4.64,11.36,4.64c4.16,0,8.32-1.776,11.2-4.64c3.04-3.04,4.8-7.04,4.8-11.36
			C464.914,252.472,463.154,248.312,460.274,245.272z"/>
	</g>
</g>
<g>
	<g>
		<path d="M411.955,245.272c-5.92-5.92-16.639-5.92-22.559,0c-3.04,3.04-4.8,7.2-4.8,11.36c0,4.32,1.76,8.32,4.8,11.36
			c2.88,2.88,7.04,4.64,11.2,4.64c4.32,0,8.48-1.776,11.36-4.64c3.04-3.04,4.8-7.04,4.8-11.36
			C416.755,252.472,414.995,248.312,411.955,245.272z"/>
	</g>
</g>
<g>
	<g>
		<path d="M465.505,351.989H46.463C20.847,351.989,0,372.676,0,398.148v35.711c0,25.439,20.847,46.127,46.463,46.127h419.059
			c25.615,0,46.463-20.687,46.463-46.143v-35.711C511.984,372.676,491.137,351.989,465.505,351.989z M479.985,433.858
			c0,7.776-6.496,14.128-14.48,14.128H46.463c-7.968,0-14.464-6.352-14.464-14.144v-35.711c0-7.808,6.496-14.144,14.464-14.144
			h419.059c7.968,0,14.464,6.336,14.464,14.16V433.858z"/>
	</g>
</g>
<g>
	<g>
		<path d="M351.989,399.988H111.997c-8.832,0-16,7.152-16,16s7.168,16,16,16h239.992c8.832,0,16-7.152,16-16
			S360.821,399.988,351.989,399.988z"/>
	</g>
</g>
<g>
	<g>
		<path d="M75.806,404.627c-5.92-5.92-16.639-5.92-22.719,0c-2.88,3.024-4.64,7.024-4.64,11.36c0,4.16,1.76,8.32,4.8,11.36
			c2.88,2.88,7.04,4.64,11.2,4.64c4.32,0,8.32-1.776,11.36-4.64c3.04-3.04,4.64-7.2,4.64-11.36
			C80.445,411.651,78.846,407.651,75.806,404.627z"/>
	</g>
</g>
<g>
	<g>
		<path d="M460.274,404.627c-5.92-5.92-16.799-5.92-22.719,0c-3.04,3.024-4.64,7.2-4.64,11.36s1.76,8.32,4.64,11.36
			c3.04,2.88,7.2,4.64,11.36,4.64c4.16,0,8.32-1.776,11.36-4.64c2.88-3.04,4.64-7.2,4.64-11.36
			C464.914,411.651,463.154,407.651,460.274,404.627z"/>
	</g>
</g>
<g>
	<g>
		<path d="M411.955,404.627c-5.92-5.92-16.639-5.92-22.559,0c-3.04,3.024-4.64,7.024-4.64,11.36c0,4.16,1.6,8.32,4.64,11.36
			c2.88,2.88,7.04,4.64,11.2,4.64c4.32,0,8.48-1.776,11.36-4.64c3.04-3.04,4.64-7.2,4.64-11.36
			C416.595,411.651,414.995,407.651,411.955,404.627z"/>
	</g>
</g>
<g>
	<g>
		<path d="M257.56,145.116c-61.486,0-111.5,50.014-111.5,111.501s50.014,111.516,111.5,111.516s111.517-50.03,111.533-111.516
			C369.092,195.13,319.062,145.116,257.56,145.116z M257.56,336.134c-43.839,0-79.502-35.663-79.502-79.518
			c0-43.839,35.663-79.502,79.502-79.502s79.518,35.663,79.534,79.502C337.093,300.471,301.415,336.134,257.56,336.134z"/>
	</g>
</g>
<g>
	<g>
		<path d="M255.992,191.994c-8.832,0-16,7.168-16,16v47.998c0,8.848,7.168,16,16,16s16-7.168,16-16v-47.998
			C271.992,199.162,264.824,191.994,255.992,191.994z"/>
	</g>
</g>
<g>
	<g>
		<path d="M303.99,239.993h-47.998c-8.832,0-16,7.152-16,16s7.168,16,16,16h47.998c8.832,0,16-7.168,16-16
			S312.822,239.993,303.99,239.993z"/>
	</g>
</g>
</svg>